<svg xmlns="http://www.w3.org/2000/svg" width="32" height="32" viewBox="0 0 32 32">
  <defs>
    <linearGradient id="gradient1" x1="0%" y1="0%" x2="100%" y2="100%">
      <stop offset="0%" style="stop-color:#8B5CF6"/>
      <stop offset="100%" style="stop-color:#6366F1"/>
    </linearGradient>
    <linearGradient id="gradient2" x1="0%" y1="0%" x2="100%" y2="100%">
      <stop offset="0%" style="stop-color:#EC4899"/>
      <stop offset="100%" style="stop-color:#8B5CF6"/>
    </linearGradient>
  </defs>
  <rect x="4" y="4" width="24" height="24" rx="6" fill="url(#gradient1)"/>
  <path d="M12 14a2 2 0 100-4 2 2 0 000 4zm8 0a2 2 0 100-4 2 2 0 000 4z" fill="white"/>
  <path d="M10 18h12c0 3.314-2.686 6-6 6s-6-2.686-6-6z" fill="white"/>
  <path d="M8 10v12M24 10v12M10 8h12M10 24h12" stroke="url(#gradient2)" stroke-width="1" stroke-linecap="round" stroke-dasharray="2"/>
</svg>
